<?xml version="1.0" standalone="no"?>
<!DOCTYPE svg PUBLIC "-//W3C//DTD SVG 20010904//EN"
 "http://www.w3.org/TR/2001/REC-SVG-20010904/DTD/svg10.dtd">
<svg version="1.0" xmlns="http://www.w3.org/2000/svg"
 width="512.000000pt" height="512.000000pt" viewBox="0 0 512.000000 512.000000"
 preserveAspectRatio="xMidYMid meet">
<metadata>
Created by potrace 1.14, written by Peter Selinger 2001-2017
</metadata>
<g transform="translate(0.000000,512.000000) scale(0.100000,-0.100000)"
fill="#000000" stroke="none">
<path d="M4145 5004 c-27 -8 -67 -20 -87 -25 -49 -15 -110 -68 -132 -116 -11
-24 -54 -69 -115 -121 -53 -45 -112 -97 -132 -115 -20 -17 -62 -55 -95 -84
-32 -28 -71 -62 -85 -75 -56 -50 -107 -96 -184 -163 -44 -38 -82 -72 -85 -75
-3 -3 -41 -37 -85 -75 -44 -39 -82 -72 -85 -75 -3 -3 -41 -36 -85 -75 -44 -38
-96 -84 -115 -101 -54 -48 -242 -214 -480 -425 -52 -46 -100 -88 -106 -94 -6
-5 -37 -32 -69 -60 -32 -27 -63 -55 -69 -61 -27 -25 -175 -156 -272 -241 -12
-10 -54 -47 -94 -83 -40 -36 -81 -71 -91 -78 -10 -7 -31 -33 -45 -58 -28 -48
-33 -98 -14 -149 12 -33 130 -151 161 -160 10 -4 19 -10 19 -15 0 -13 77 -40
118 -42 43 -1 94 9 126 26 20 10 162 131 291 247 80 72 163 145 230 204 37 33
73 65 79 70 6 6 47 41 91 80 44 38 96 84 115 101 19 18 80 71 135 120 55 48
116 102 135 120 19 17 132 116 250 220 118 103 217 191 220 194 3 3 43 39 90
80 47 41 87 77 90 80 3 3 35 32 73 64 l67 58 0 -1327 c0 -1263 -1 -1327 -17
-1314 -10 8 -44 39 -76 69 -77 73 -118 97 -180 104 -77 10 -125 -10 -231 -92
-120 -93 -144 -139 -122 -232 9 -38 46 -76 306 -320 175 -165 348 -337 375
-373 11 -15 49 -42 85 -60 56 -28 75 -32 141 -32 42 0 82 5 90 11 8 6 37 17
66 24 67 15 114 61 143 137 21 55 28 132 15 154 -4 5 -7 857 -7 1893 0 1790 1
1886 18 1911 11 17 18 47 18 79 1 45 -5 61 -47 125 -27 41 -63 81 -82 92 -19
11 -35 19 -37 18 -2 -1 -22 8 -46 20 -55 28 -115 33 -177 15z"/>
<path d="M815 4549 c-91 -7 -133 -25 -168 -71 -21 -28 -43 -76 -39 -85 1 -2
-5 -23 -13 -49 -8 -28 -11 -61 -7 -87 7 -42 9 -3791 2 -3857 -5 -49 18 -169
38 -204 9 -16 34 -42 54 -59 35 -28 47 -31 150 -39 62 -5 134 -7 160 -4 55 6
119 36 145 68 10 13 52 52 93 87 152 129 179 153 390 331 118 101 238 202 265
225 134 114 346 294 390 330 26 22 58 49 69 60 12 11 43 37 68 58 26 21 53 43
60 50 7 7 40 34 73 62 33 27 71 59 85 72 14 12 77 65 140 119 63 53 128 107
143 121 15 13 71 60 125 105 53 46 160 136 238 203 78 66 163 138 189 160 27
22 53 45 59 50 6 6 50 43 98 83 108 90 139 129 145 186 8 67 -17 107 -121 193
-114 94 -155 115 -226 118 -82 3 -136 -21 -226 -102 -41 -37 -66 -57 -144
-122 -36 -30 -67 -57 -70 -60 -3 -3 -75 -64 -160 -136 -85 -71 -168 -141 -185
-156 -24 -22 -229 -195 -330 -280 -11 -10 -72 -61 -136 -116 -64 -54 -227
-192 -364 -308 -136 -115 -264 -224 -284 -241 -131 -113 -324 -274 -329 -274
-7 0 -6 2660 1 2666 2 2 12 -4 23 -14 177 -160 204 -176 294 -176 71 0 116 16
165 62 17 15 52 44 78 65 59 48 90 106 84 156 -10 75 -20 89 -157 211 -46 41
-111 100 -145 130 -63 57 -184 165 -221 197 -91 78 -130 120 -150 162 -49 98
-141 127 -349 110z"/>
</g>
</svg>
